<svg width="438" height="411" viewBox="0 0 438 411" fill="none" xmlns="http://www.w3.org/2000/svg">
<path d="M358.979 161.451H266.363V406.81H358.979V161.451Z" fill="#292D31"/>
<path fill-rule="evenodd" clip-rule="evenodd" d="M339.68 91.4199L432.296 3.20078V406.81H339.68V91.4199Z" fill="#292D31"/>
<path fill-rule="evenodd" clip-rule="evenodd" d="M415.898 170.772L444.529 135.365L444.529 170.772V406.81H415.898V170.772Z" fill="#292D31"/>
<path fill-rule="evenodd" clip-rule="evenodd" d="M171.812 246.357H292.67V265.656H281.093V406.807H171.812V265.656H160.235V246.357H171.812Z" fill="#292D31"/>
<path fill-rule="evenodd" clip-rule="evenodd" d="M107.178 128.905H121.383V107.41H134.89V92.936H146.975V12.372H159.999V92.9381H172.085V107.412H185.591V128.907H199.796V406.81H107.18L107.178 128.905Z" fill="#292D31"/>
<path fill-rule="evenodd" clip-rule="evenodd" d="M0 277.27H34.7313V255.052H86.828V277.27H121.559V406.81H0V277.27Z" fill="#292D31"/>
<path d="M358.979 161.451H339.684V406.81H358.979V161.451Z" fill="#575757"/>
<path fill-rule="evenodd" clip-rule="evenodd" d="M432.296 150.485V406.81H415.893V170.772L432.296 150.485Z" fill="#575757"/>
<path fill-rule="evenodd" clip-rule="evenodd" d="M266.358 246.357H292.671V265.656H281.093V406.807H266.358V246.357Z" fill="#575757"/>
<path fill-rule="evenodd" clip-rule="evenodd" d="M199.794 246.357V406.807H171.812V265.656H160.235V246.357H199.79H199.794Z" fill="#575757"/>
<path d="M121.555 277.27H107.178V406.81H121.555V277.27Z" fill="#575757"/>
<path fill-rule="evenodd" clip-rule="evenodd" d="M279.627 158.235H372.243C373.096 158.235 373.914 158.573 374.517 159.177C375.12 159.78 375.459 160.598 375.459 161.451V406.81C375.459 407.663 375.12 408.481 374.517 409.084C373.914 409.687 373.096 410.026 372.243 410.026H279.627C278.774 410.026 277.956 409.687 277.353 409.084C276.75 408.481 276.411 407.663 276.411 406.81V161.451C276.411 160.598 276.75 159.78 277.353 159.177C277.956 158.573 278.774 158.235 279.627 158.235ZM369.027 164.667H282.843V403.593H369.027V164.667Z" fill="#1A1818"/>
<path fill-rule="evenodd" clip-rule="evenodd" d="M350.892 88.9432L443.352 0.874186C443.808 0.444928 444.38 0.158179 444.996 0.0491287C445.613 -0.0599214 446.248 0.0134735 446.824 0.260309C447.399 0.507145 447.89 0.916675 448.236 1.43864C448.582 1.96061 448.769 2.57229 448.772 3.19862V406.81C448.772 407.663 448.433 408.481 447.83 409.084C447.227 409.687 446.409 410.026 445.556 410.026H352.94C352.087 410.026 351.269 409.687 350.666 409.084C350.063 408.481 349.724 407.663 349.724 406.81V91.4199C349.724 90.9476 349.828 90.481 350.028 90.0533C350.228 89.6256 350.521 89.2474 350.884 88.9454L350.892 88.9432ZM442.349 10.693L356.164 92.7858V403.593H442.349V10.693Z" fill="#1A1818"/>
<path fill-rule="evenodd" clip-rule="evenodd" d="M185.081 243.141H305.939C306.792 243.141 307.61 243.48 308.213 244.083C308.816 244.686 309.155 245.504 309.155 246.357V265.656C309.155 266.509 308.816 267.327 308.213 267.93C307.61 268.534 306.792 268.872 305.939 268.872H297.578V406.807C297.578 407.661 297.239 408.479 296.636 409.082C296.033 409.685 295.215 410.024 294.362 410.024H185.081C184.228 410.024 183.41 409.685 182.807 409.082C182.204 408.479 181.865 407.661 181.865 406.807V268.875H173.504C172.651 268.875 171.833 268.536 171.23 267.933C170.627 267.329 170.288 266.511 170.288 265.658V246.359C170.288 245.506 170.627 244.688 171.23 244.085C171.833 243.482 172.651 243.143 173.504 243.143L185.081 243.141ZM294.362 249.574H176.72V262.44H185.081C185.934 262.44 186.752 262.778 187.355 263.382C187.958 263.985 188.297 264.803 188.297 265.656V403.591H291.146V265.658C291.146 264.805 291.485 263.987 292.088 263.384C292.691 262.781 293.509 262.442 294.362 262.442H302.723V249.576L294.362 249.574Z" fill="#1A1818"/>
<path fill-rule="evenodd" clip-rule="evenodd" d="M120.442 125.688H131.432V107.412C131.432 106.559 131.771 105.741 132.374 105.138C132.977 104.535 133.795 104.196 134.648 104.196H144.938V92.9402C144.938 92.0872 145.278 91.269 145.881 90.6658C146.484 90.0626 147.301 89.7238 148.154 89.7238H157.024V12.372C157.024 11.5189 157.363 10.7008 157.966 10.0976C158.569 9.4944 159.387 9.15552 160.24 9.15552H173.264C174.117 9.15552 174.935 9.4944 175.538 10.0976C176.141 10.7008 176.48 11.5189 176.48 12.372V89.7216H185.349C186.202 89.7216 187.02 90.0605 187.623 90.6637C188.226 91.2669 188.565 92.085 188.565 92.9381V104.194H198.856C199.708 104.194 200.526 104.532 201.13 105.136C201.733 105.739 202.071 106.557 202.071 107.41V125.686H213.061C213.914 125.686 214.732 126.025 215.335 126.628C215.938 127.231 216.277 128.049 216.277 128.902V406.805C216.277 407.658 215.938 408.477 215.335 409.08C214.732 409.683 213.914 410.022 213.061 410.022H120.445C119.592 410.022 118.774 409.683 118.171 409.08C117.568 408.477 117.229 407.658 117.229 406.805V128.902C117.229 128.049 117.568 127.231 118.171 126.628C118.774 126.025 119.592 125.686 120.445 125.686L120.442 125.688ZM134.648 132.121H123.66V403.591H209.845V132.121H198.858C198.005 132.121 197.187 131.782 196.584 131.179C195.981 130.576 195.642 129.758 195.642 128.905V110.629H185.351C184.498 110.629 183.68 110.29 183.077 109.687C182.474 109.083 182.135 108.265 182.135 107.412V96.1546H173.266C172.413 96.1546 171.595 95.8157 170.992 95.2125C170.389 94.6093 170.05 93.7911 170.05 92.9381V15.5885H163.451V92.9381C163.451 93.7911 163.112 94.6093 162.509 95.2125C161.906 95.8157 161.088 96.1546 160.235 96.1546H151.366V107.412C151.366 108.265 151.027 109.083 150.424 109.687C149.821 110.29 149.003 110.629 148.15 110.629H137.859V128.905C137.859 129.757 137.521 130.574 136.919 131.178C136.317 131.781 135.5 132.12 134.648 132.121Z" fill="#1A1818"/>
<path fill-rule="evenodd" clip-rule="evenodd" d="M13.2645 274.051H44.78V255.052C44.78 254.199 45.1188 253.381 45.7218 252.778C46.3249 252.175 47.1429 251.836 47.9958 251.836H100.092C100.945 251.836 101.763 252.175 102.366 252.778C102.97 253.381 103.308 254.199 103.308 255.052V274.051H134.824C135.677 274.051 136.495 274.39 137.098 274.993C137.701 275.596 138.04 276.414 138.04 277.267V406.807C138.04 407.661 137.701 408.479 137.098 409.082C136.495 409.685 135.677 410.024 134.824 410.024H13.2645C12.4116 410.024 11.5936 409.685 10.9905 409.082C10.3874 408.479 10.0486 407.661 10.0486 406.807V277.27C10.0486 276.417 10.3874 275.598 10.9905 274.995C11.5936 274.392 12.4116 274.053 13.2645 274.053V274.051ZM47.9958 280.484H16.4803V403.591H131.608V280.486H100.092C99.2396 280.486 98.4216 280.147 97.8185 279.544C97.2154 278.941 96.8766 278.123 96.8766 277.27V258.269H51.2117V277.27C51.2117 277.692 51.1282 278.111 50.9664 278.501C50.8047 278.891 50.5678 279.246 50.269 279.545C49.9702 279.843 49.6152 280.08 49.2248 280.242C48.8344 280.403 48.416 280.486 47.9935 280.486L47.9958 280.484Z" fill="#1A1818"/>
</svg>
