<svg width="66" height="75" viewBox="0 0 66 75" fill="none" xmlns="http://www.w3.org/2000/svg">
<path d="M65.7895 60C65.7895 68.2841 51.0621 75 32.8947 75C14.7275 75 0 68.2841 0 60V44.9025C2.06501 47.2147 4.99568 49.1358 8.25551 50.622C14.7206 53.5702 23.4361 55.3125 32.8947 55.3125C42.3532 55.3125 51.0691 53.5702 57.5341 50.622C60.794 49.1358 63.7245 47.2147 65.7895 44.9025V60Z" fill="white"/>
<path d="M32.8947 32.8125C42.3532 32.8125 51.0691 31.0702 57.5341 28.1221C60.794 26.6356 63.7245 24.7147 65.7895 22.4023V37.5C65.7895 39.375 58.4469 43.4666 54.7755 45.591C49.3351 48.072 41.6036 49.6875 32.8947 49.6875C24.1861 49.6875 16.4543 48.072 11.0138 45.591C6.16776 43.3811 0 39.375 0 37.5V22.4023C2.06501 24.7147 4.99568 26.6356 8.25551 28.1221C14.7206 31.0702 23.4361 32.8125 32.8947 32.8125Z" fill="white"/>
<path d="M54.9856 23.091C49.5245 25.5719 41.7635 27.1875 33.0214 27.1875C24.2795 27.1875 16.5182 25.5719 11.057 23.091C8.93246 22.3348 4.15498 19.9309 0.832856 16.0476C0.26755 15.3867 0.0249334 14.5445 0.165765 13.7174C0.260491 13.1613 0.392449 12.5886 0.561595 12.2335C3.41937 5.27077 16.8654 0 33.0214 0C49.1773 0 62.6232 5.27077 65.4811 12.2335C65.6503 12.5886 65.7824 13.1613 65.8769 13.7174C66.0176 14.5445 65.7753 15.3867 65.2099 16.0476C61.8876 19.9309 57.1104 22.3348 54.9856 23.091Z" fill="white"/>
</svg>
