<svg width="36" height="36" viewBox="0 0 36 36" fill="none" xmlns="http://www.w3.org/2000/svg">
<path d="M3.88477 20.2008V26.1275C3.93457 29.2387 9.05449 31.7555 17 31.7555C24.9455 31.7555 30.0621 29.2387 30.1152 26.1275V20.2008H3.88477Z" fill="#1B9BDB"/>
<path d="M30.1152 20.1775C30.1152 23.4779 24.9754 26.1541 17 26.1541C9.02461 26.1541 3.88477 23.4779 3.88477 20.1775C3.88477 16.8771 9.02461 14.201 17 14.201C24.9754 14.201 30.1152 16.8738 30.1152 20.1775Z" fill="white"/>
<path d="M3.88477 14.2242V19.4869C3.93457 22.598 9.05449 25.4469 17 25.4469C24.9455 25.4469 30.0621 22.598 30.1152 19.4869V14.2242H3.88477Z" fill="#1B9BDB"/>
<path d="M30.1152 14.201C30.1152 17.5014 24.9754 20.1775 17 20.1775C9.02461 20.1775 3.88477 17.5014 3.88477 14.201C3.88477 10.9006 9.02461 8.22441 17 8.22441C24.9754 8.22441 30.1152 10.8973 30.1152 14.201Z" fill="white"/>
<path d="M3.88477 8.24765V13.5103C3.93457 16.6215 9.05449 19.4703 17 19.4703C24.9455 19.4703 30.0621 16.6215 30.1152 13.5103V8.24765H3.88477Z" fill="#1B9BDB"/>
<path d="M30.1152 8.22441C30.1152 11.5248 24.9754 14.201 17 14.201C9.02461 14.201 3.88477 11.5248 3.88477 8.22441C3.88477 4.92402 9.02461 2.24785 17 2.24785C24.9754 2.24785 30.1152 4.9207 30.1152 8.22441Z" fill="#3ED6FF"/>
</svg>
