<svg width="46" height="36" viewBox="0 0 46 36" fill="none" xmlns="http://www.w3.org/2000/svg">
<path d="M5.66667 5.16737C4.8875 5.16737 4.25 5.80776 4.25 6.59047V8.55612L19.5234 21.1505C21.3563 22.6625 23.9859 22.6625 25.8188 21.1505L41.0833 8.55612V6.59047C41.0833 5.80776 40.4458 5.16737 39.6667 5.16737H5.66667ZM4.25 14.0795V29.36C4.25 30.1427 4.8875 30.7831 5.66667 30.7831H39.6667C40.4458 30.7831 41.0833 30.1427 41.0833 29.36V14.0795L28.5104 24.4503C25.1104 27.252 20.2141 27.252 16.8229 24.4503L4.25 14.0795ZM0 6.59047C0 3.45076 2.54115 0.898087 5.66667 0.898087H39.6667C42.7922 0.898087 45.3333 3.45076 45.3333 6.59047V29.36C45.3333 32.4997 42.7922 35.0524 39.6667 35.0524H5.66667C2.54115 35.0524 0 32.4997 0 29.36V6.59047Z" fill="#292D31"/>
<path d="M3.75 8.55612V8.79188L3.9319 8.94188L19.2052 21.5362C21.2228 23.2006 24.1194 23.2006 26.1369 21.5362L26.137 21.5362L41.4015 8.94179L41.5833 8.7918V8.55612V6.59047C41.5833 5.53376 40.7241 4.66737 39.6667 4.66737H5.66667C4.60923 4.66737 3.75 5.53376 3.75 6.59047V8.55612ZM4.56816 13.6938L3.75 13.0189V14.0795V29.36C3.75 30.4167 4.60923 31.2831 5.66667 31.2831H39.6667C40.7241 31.2831 41.5833 30.4167 41.5833 29.36V14.0795V13.0189L40.7652 13.6938L28.1924 24.0644C24.9769 26.7142 20.3474 26.7136 17.1414 24.0648L17.1411 24.0646L4.56816 13.6938ZM0.5 6.59047C0.5 3.72477 2.81942 1.39809 5.66667 1.39809H39.6667C42.5139 1.39809 44.8333 3.72477 44.8333 6.59047V29.36C44.8333 32.2257 42.5139 34.5524 39.6667 34.5524H5.66667C2.81942 34.5524 0.5 32.2257 0.5 29.36V6.59047Z" stroke="white" stroke-opacity="0.25"/>
</svg>
