<svg width="47" height="36" viewBox="0 0 47 36" fill="none" xmlns="http://www.w3.org/2000/svg">
<path d="M6.66667 5.16737C5.8875 5.16737 5.25 5.80776 5.25 6.59047V8.55612L20.5234 21.1505C22.3563 22.6625 24.9859 22.6625 26.8188 21.1505L42.0833 8.55612V6.59047C42.0833 5.80776 41.4458 5.16737 40.6667 5.16737H6.66667ZM5.25 14.0795V29.36C5.25 30.1427 5.8875 30.7831 6.66667 30.7831H40.6667C41.4458 30.7831 42.0833 30.1427 42.0833 29.36V14.0795L29.5104 24.4503C26.1104 27.252 21.2141 27.252 17.8229 24.4503L5.25 14.0795ZM1 6.59047C1 3.45076 3.54115 0.898087 6.66667 0.898087H40.6667C43.7922 0.898087 46.3333 3.45076 46.3333 6.59047V29.36C46.3333 32.4997 43.7922 35.0524 40.6667 35.0524H6.66667C3.54115 35.0524 1 32.4997 1 29.36V6.59047Z" fill="#292D31" stroke="white" stroke-opacity="0.6"/>
</svg>
