<svg width="39" height="39" viewBox="0 0 39 39" fill="none" xmlns="http://www.w3.org/2000/svg">
<path d="M34.8214 0H4.17857C1.87165 0 0 1.87165 0 4.17857V34.8214C0 37.1284 1.87165 39 4.17857 39H34.8214C37.1284 39 39 37.1284 39 34.8214V4.17857C39 1.87165 37.1284 0 34.8214 0ZM26 33.4025C25.2688 33.533 23.1388 33.0804 23.1388 32.706C23.1388 32.2359 23.1562 29.8333 23.1562 27.892C23.1562 26.5339 22.7036 25.6721 22.1725 25.2194C25.3935 24.8625 28.7886 24.4185 28.7886 18.8558C28.7886 17.2714 28.2228 16.4792 27.3 15.4607C27.448 15.0864 27.9442 13.5455 27.152 11.5433C25.942 11.169 23.1737 13.1016 23.1737 13.1016C22.0246 12.7795 20.7797 12.6141 19.5522 12.6141C18.3248 12.6141 17.0799 12.7795 15.9308 13.1016C15.9308 13.1016 13.1625 11.169 11.9525 11.5433C11.1603 13.5368 11.6478 15.0777 11.8045 15.4607C10.8817 16.4792 10.4464 17.2714 10.4464 18.8558C10.4464 24.3924 13.6935 24.8625 16.9145 25.2194C16.4967 25.5938 16.1223 26.2379 15.9917 27.1607C15.1647 27.535 13.0493 28.1792 11.7871 25.9507C10.9949 24.5752 9.56719 24.4621 9.56719 24.4621C8.15692 24.4446 9.47143 25.35 9.47143 25.35C10.4116 25.7853 11.0732 27.4567 11.0732 27.4567C11.9176 30.0422 15.9569 29.1717 15.9569 29.1717C15.9569 30.3817 15.9743 32.3491 15.9743 32.706C15.9743 33.0804 15.7132 33.533 14.9732 33.4025C9.22768 31.4786 5.2058 26.0116 5.2058 19.6219C5.2058 11.6304 11.317 5.56272 19.3085 5.56272C27.3 5.56272 33.7768 11.6304 33.7768 19.6219C33.7855 26.0116 32.5 30.5 26 33.4025ZM15.6 28.0835C15.4346 28.1183 15.2779 28.0487 15.2605 27.9355C15.2431 27.8049 15.3563 27.6917 15.5217 27.6569C15.6871 27.6395 15.8438 27.7092 15.8612 27.8223C15.8873 27.9355 15.7741 28.0487 15.6 28.0835ZM14.773 28.0051C14.773 28.1183 14.6424 28.2141 14.4683 28.2141C14.2768 28.2315 14.1462 28.1357 14.1462 28.0051C14.1462 27.892 14.2768 27.7962 14.4509 27.7962C14.6163 27.7788 14.773 27.8746 14.773 28.0051ZM13.5804 27.9094C13.5455 28.0225 13.3714 28.0748 13.2234 28.0225C13.058 27.9877 12.9449 27.8571 12.9797 27.744C13.0145 27.6308 13.1886 27.5786 13.3366 27.6134C13.5107 27.6656 13.6239 27.7962 13.5804 27.9094ZM12.5096 27.4393C12.4313 27.535 12.2658 27.5176 12.1353 27.3871C12.0047 27.2739 11.9699 27.1085 12.0569 27.0301C12.1353 26.9344 12.3007 26.9518 12.4313 27.0824C12.5444 27.1955 12.5879 27.3696 12.5096 27.4393ZM11.7174 26.6471C11.6391 26.6993 11.4911 26.6471 11.3953 26.5165C11.2996 26.3859 11.2996 26.2379 11.3953 26.177C11.4911 26.0987 11.6391 26.1596 11.7174 26.2902C11.8132 26.4208 11.8132 26.5775 11.7174 26.6471ZM11.1516 25.8027C11.0732 25.881 10.9426 25.8375 10.8469 25.7504C10.7511 25.6373 10.7337 25.5067 10.8121 25.4458C10.8904 25.3674 11.021 25.4109 11.1167 25.498C11.2125 25.6112 11.2299 25.7417 11.1516 25.8027ZM10.5683 25.1585C10.5335 25.2368 10.4203 25.2542 10.3246 25.1933C10.2114 25.1411 10.1592 25.0453 10.194 24.967C10.2288 24.9147 10.3246 24.8886 10.4377 24.9321C10.5509 24.9931 10.6031 25.0888 10.5683 25.1585Z" fill="#292D31"/>
<path d="M12.1353 27.3871L12.0825 27.4399C12.0795 27.4377 12.078 27.4362 12.0777 27.4359C12.0716 27.4298 12.0618 27.4191 12.0549 27.389C12.0515 27.3739 12.0454 27.339 12.0529 27.2899C12.0725 27.3226 12.0986 27.3544 12.1306 27.383C12.1322 27.3843 12.1337 27.3857 12.1353 27.3871ZM12.1353 27.3871L12.0869 27.4429C12.0892 27.4444 12.0921 27.4462 12.0955 27.448C12.1072 27.4541 12.1287 27.4632 12.1605 27.4673C12.182 27.47 12.2097 27.4702 12.2406 27.4652C12.2046 27.4466 12.1688 27.4206 12.1353 27.3871ZM14.4683 28.2141V28.2923C14.4628 28.2914 14.457 28.2901 14.4509 28.2882C14.437 28.2841 14.4219 28.2774 14.4055 28.267C14.3897 28.257 14.3654 28.2376 14.3419 28.2081C14.3751 28.2149 14.4116 28.2176 14.4509 28.2153C14.4566 28.215 14.4624 28.2146 14.4683 28.2141ZM14.4683 28.2141L14.4753 28.2912C14.4827 28.2887 14.4916 28.285 14.5017 28.2793C14.5075 28.2761 14.5136 28.2724 14.52 28.2678C14.5373 28.2558 14.5636 28.2326 14.5878 28.1978C14.5591 28.2061 14.5278 28.2114 14.4948 28.2133C14.4861 28.2138 14.4773 28.2141 14.4683 28.2141ZM26.0879 33.8947L26.1481 33.8839L26.2039 33.859C29.5373 32.3705 31.5826 30.4501 32.7771 28.0421C33.9621 25.6531 34.2812 22.8391 34.2768 19.6212C34.2764 11.3353 27.557 5.06272 19.3085 5.06272C11.0429 5.06272 4.7058 11.3522 4.7058 19.6219C4.7058 26.2248 8.86338 31.8839 14.8145 33.8766L14.8497 33.8884L14.8863 33.8949C15.3679 33.9798 15.7879 33.8864 16.0878 33.6133C16.3735 33.3533 16.4743 32.9983 16.4743 32.706C16.4743 32.5787 16.4722 32.2506 16.4694 31.8279C16.4682 31.6511 16.4669 31.4577 16.4656 31.2556C16.4613 30.5678 16.4569 29.7749 16.4569 29.1717V28.5524L15.8521 28.6828L15.852 28.6828L15.8518 28.6828L15.8516 28.6829L15.8512 28.683L15.8451 28.6842L15.8167 28.6898C15.7907 28.6949 15.7509 28.7022 15.6992 28.7109C15.5956 28.7282 15.4447 28.7506 15.2603 28.77C14.8892 28.809 14.3931 28.8346 13.8788 28.786C12.9598 28.699 12.1251 28.3961 11.708 27.664C11.7349 27.6957 11.7638 27.7254 11.7942 27.7529C11.9215 27.8757 12.0883 27.9695 12.278 27.9939C12.3497 28.0032 12.4272 28.0021 12.5051 27.9873C12.5383 28.0895 12.593 28.1764 12.6497 28.2413C12.765 28.3735 12.9218 28.4631 13.089 28.5046C13.256 28.5562 13.4343 28.5548 13.593 28.5054C13.6513 28.4872 13.718 28.4584 13.7832 28.4159C13.8317 28.4805 13.8907 28.5358 13.9562 28.5799C14.1211 28.6908 14.3133 28.7259 14.4911 28.7138C14.6586 28.7098 14.8293 28.662 14.9727 28.5617C15.0083 28.5367 15.0441 28.5068 15.0781 28.4721C15.1107 28.4925 15.1431 28.5094 15.1739 28.5229C15.3396 28.5956 15.5265 28.6094 15.7006 28.5733C15.8627 28.5404 16.0296 28.4655 16.1592 28.3358C16.2888 28.2062 16.4051 27.9888 16.3522 27.7279C16.3416 27.6697 16.324 27.6169 16.3015 27.5693L16.4483 27.5029L16.4868 27.2308C16.6035 26.4062 16.931 25.8759 17.2481 25.5918L18.0811 24.8456L16.9696 24.7225C15.3343 24.5413 13.852 24.339 12.7603 23.571C11.7213 22.8402 10.9464 21.521 10.9464 18.8558C10.9464 18.1112 11.0484 17.588 11.239 17.1429C11.4314 16.6937 11.7287 16.289 12.175 15.7964L12.3865 15.563L12.2672 15.2714C12.149 14.9823 11.7307 13.7007 12.318 11.9952C12.4746 11.9968 12.6821 12.0304 12.9413 12.1079C13.329 12.2239 13.7575 12.415 14.1656 12.6261C14.5711 12.8359 14.9422 13.0581 15.2129 13.2285C15.3479 13.3135 15.457 13.3851 15.5319 13.4351C15.5693 13.4601 15.5981 13.4796 15.6172 13.4927L15.6386 13.5074L15.6435 13.5108L15.6446 13.5115L15.6446 13.5115L15.6447 13.5116L15.6447 13.5116L15.8383 13.6468L16.0658 13.583C17.1688 13.2738 18.3682 13.1141 19.5522 13.1141C20.7363 13.1141 21.9356 13.2738 23.0387 13.583L23.2662 13.6468L23.4598 13.5116L23.4598 13.5116L23.4599 13.5115L23.4599 13.5115L23.4609 13.5108L23.4659 13.5074L23.4872 13.4927C23.5064 13.4796 23.5352 13.4601 23.5726 13.4351C23.6475 13.3851 23.7566 13.3135 23.8915 13.2285C24.1622 13.0581 24.5334 12.8359 24.9388 12.6261C25.3469 12.415 25.7755 12.2239 26.1632 12.1079C26.4221 12.0304 26.6294 11.9969 26.786 11.9952C27.3726 13.707 26.9486 14.9895 26.835 15.2769L26.7207 15.566L26.9295 15.7964C27.3863 16.3006 27.7175 16.7098 27.9415 17.1663C28.1601 17.6118 28.2886 18.1288 28.2886 18.8558C28.2886 21.5267 27.4818 22.8457 26.4073 23.5763C25.2766 24.3452 23.7546 24.5411 22.1175 24.7225L20.9682 24.8498L21.8482 25.5999C22.2431 25.9366 22.6562 26.6446 22.6562 27.892C22.6562 28.8614 22.6519 29.9464 22.6476 30.8483C22.6461 31.1537 22.6446 31.4385 22.6433 31.6908C22.6407 32.1819 22.6388 32.5497 22.6388 32.706C22.6388 32.9912 22.8312 33.1683 22.9186 33.2385C23.0273 33.3259 23.1584 33.3944 23.2814 33.4487C23.5329 33.5595 23.8558 33.6555 24.183 33.7308C24.514 33.807 24.8699 33.8668 25.1952 33.8989C25.5095 33.93 25.8354 33.9398 26.0879 33.8947ZM11.0732 27.4567C11.3847 27.3334 11.4875 27.2927 11.5214 27.2792C11.5214 27.2792 11.5214 27.2793 11.5214 27.2793L11.0732 27.4567ZM11.5095 27.1533C11.5097 27.1725 11.5106 27.1913 11.5121 27.2096C11.5092 27.2027 11.506 27.1952 11.5026 27.1873C11.4975 27.1754 11.4919 27.1624 11.4857 27.1483C11.4935 27.1501 11.5015 27.1518 11.5095 27.1533ZM11.2892 26.4915C11.2892 26.4575 11.2977 26.4062 11.3257 26.3537C11.3317 26.3985 11.3495 26.4465 11.3793 26.4931C11.3843 26.5009 11.3896 26.5088 11.3953 26.5165C11.3969 26.5187 11.3985 26.5208 11.4001 26.5229C11.4403 26.5758 11.4891 26.6152 11.5379 26.6393C11.4782 26.6468 11.4248 26.6373 11.3892 26.6241C11.3574 26.6123 11.3345 26.5972 11.3184 26.5828C11.3163 26.5809 11.3143 26.5791 11.3125 26.5773C11.3095 26.5743 11.3068 26.5714 11.3043 26.5686C11.3012 26.562 11.298 26.5536 11.2954 26.5434C11.2918 26.5296 11.2892 26.5123 11.2892 26.4915ZM13.1566 28.0594C13.1451 28.0457 13.1268 28.0186 13.1122 27.9811C13.1427 27.9982 13.1772 28.0118 13.2145 28.0205L13.193 28.092C13.1868 28.0886 13.1734 28.0795 13.1566 28.0594ZM13.3642 28.0423C13.3233 28.0446 13.2804 28.0401 13.2391 28.0277L13.2221 28.1001C13.2377 28.1038 13.2534 28.1046 13.2785 28.096C13.2864 28.0932 13.3239 28.079 13.3642 28.0423ZM15.5329 28.1425C15.5219 28.1373 15.4919 28.1208 15.46 28.0887C15.4938 28.0935 15.53 28.0939 15.5671 28.0891L15.574 28.1542C15.5732 28.1543 15.571 28.1545 15.5664 28.1538C15.5623 28.1531 15.5506 28.1509 15.5329 28.1425ZM15.7301 28.0376C15.6955 28.0563 15.6553 28.0713 15.611 28.0812L15.6247 28.1462C15.6251 28.1461 15.6306 28.1449 15.6401 28.14C15.6493 28.1351 15.6656 28.125 15.684 28.1057C15.6997 28.0893 15.7164 28.0662 15.7301 28.0376ZM9.39569 24.6049C9.3957 24.6049 9.3962 24.6057 9.39702 24.6075C9.39607 24.6058 9.39567 24.605 9.39569 24.6049ZM9.24959 24.9885C9.24954 24.9885 9.25059 24.988 9.25291 24.9873C9.2508 24.9882 9.24964 24.9886 9.24959 24.9885ZM10.08 25.1418C10.0791 25.1304 10.0786 25.1188 10.0787 25.1068C10.1114 25.1195 10.1449 25.1334 10.179 25.1484C10.2162 25.1647 10.2542 25.1824 10.2927 25.2015L10.2485 25.2835C10.1942 25.234 10.138 25.1865 10.08 25.1418ZM10.703 25.7295C10.7013 25.7149 10.7006 25.6974 10.7016 25.6779C10.7279 25.6667 10.7539 25.6537 10.7793 25.6386C10.7915 25.6709 10.8103 25.7041 10.8353 25.7362L10.735 25.821C10.7336 25.8192 10.7283 25.8127 10.7222 25.7999C10.7164 25.7877 10.7072 25.7641 10.703 25.7295ZM10.7804 25.868L10.8696 25.7698C10.9162 25.8067 10.9687 25.8331 11.0187 25.841C10.9992 25.8602 10.9814 25.8802 10.9652 25.9009C10.9156 25.9085 10.8756 25.9037 10.8504 25.8982C10.8214 25.8918 10.8031 25.8827 10.7952 25.8782C10.7868 25.8735 10.7824 25.8697 10.7804 25.868ZM10.3274 25.2191C10.3343 25.2226 10.3413 25.2263 10.3482 25.2299C10.3289 25.2634 10.3133 25.2978 10.301 25.3324C10.2968 25.3284 10.2926 25.3244 10.2884 25.3205L10.3274 25.2191ZM13.1968 28.0938C13.1968 28.0938 13.196 28.0936 13.1946 28.0928C13.1961 28.0933 13.1968 28.0937 13.1968 28.0938ZM4.17857 0.5H34.8214C36.8522 0.5 38.5 2.14779 38.5 4.17857V34.8214C38.5 36.8522 36.8522 38.5 34.8214 38.5H4.17857C2.14779 38.5 0.5 36.8522 0.5 34.8214V4.17857C0.5 2.14779 2.14779 0.5 4.17857 0.5Z" stroke="white" stroke-opacity="0.25"/>
</svg>




