<svg width="37" height="37" viewBox="0 0 37 37" fill="none" xmlns="http://www.w3.org/2000/svg">
<path d="M32.8699 0.261139H4.74129C2.62366 0.261139 0.905579 1.9873 0.905579 4.11489V32.3758C0.905579 34.5034 2.62366 36.2295 4.74129 36.2295H32.8699C34.9875 36.2295 36.7056 34.5034 36.7056 32.3758V4.11489C36.7056 1.9873 34.9875 0.261139 32.8699 0.261139ZM23.0648 31.0671C22.3936 31.1875 22.1458 30.77 22.1458 30.4248C22.1458 29.9913 22.1618 27.7754 22.1618 25.985C22.1618 24.7325 21.7463 23.9377 21.2588 23.5202C24.2155 23.191 27.3321 22.7815 27.3321 17.6512C27.3321 16.19 26.8126 15.4594 25.9656 14.52C26.1014 14.1748 26.5569 12.7537 25.8297 10.9071C24.719 10.5619 22.1778 12.3443 22.1778 12.3443C21.123 12.0472 19.9803 11.8947 18.8535 11.8947C17.7268 11.8947 16.5841 12.0472 15.5292 12.3443C15.5292 12.3443 12.9881 10.5619 11.8773 10.9071C11.1501 12.7457 11.5976 14.1668 11.7415 14.52C10.8944 15.4594 10.4949 16.19 10.4949 17.6512C10.4949 22.7574 13.4755 23.191 16.4322 23.5202C16.0487 23.8654 15.705 24.4595 15.5852 25.3106C14.826 25.6558 12.8842 26.2499 11.7255 24.1946C10.9983 22.926 9.68777 22.8217 9.68777 22.8217C8.39321 22.8056 9.59986 23.6406 9.59986 23.6406C10.4629 24.042 11.0702 25.5835 11.0702 25.5835C11.8454 27.968 15.5532 27.1652 15.5532 27.1652C15.5532 28.2812 15.5692 30.0956 15.5692 30.4248C15.5692 30.77 15.3295 31.1875 14.6502 31.0671C9.37611 29.2928 5.68424 24.2508 5.68424 18.3577C5.68424 10.9874 11.294 5.39145 18.6298 5.39145C25.9656 5.39145 31.9109 10.9874 31.9109 18.3577C31.9189 24.2508 28.3389 29.3008 23.0648 31.0671ZM15.2256 26.1616C15.0737 26.1937 14.9299 26.1295 14.9139 26.0251C14.8979 25.9047 15.0018 25.8003 15.1537 25.7682C15.3055 25.7521 15.4493 25.8164 15.4653 25.9207C15.4893 26.0251 15.3854 26.1295 15.2256 26.1616ZM14.4664 26.0893C14.4664 26.1937 14.3466 26.282 14.1867 26.282C14.0109 26.2981 13.8911 26.2098 13.8911 26.0893C13.8911 25.985 14.0109 25.8966 14.1708 25.8966C14.3226 25.8806 14.4664 25.9689 14.4664 26.0893ZM13.3717 26.001C13.3397 26.1054 13.1799 26.1536 13.044 26.1054C12.8922 26.0733 12.7883 25.9528 12.8203 25.8485C12.8522 25.7441 13.0121 25.6959 13.1479 25.728C13.3077 25.7762 13.4116 25.8966 13.3717 26.001ZM12.3887 25.5675C12.3168 25.6558 12.165 25.6397 12.0451 25.5193C11.9253 25.4149 11.8933 25.2624 11.9732 25.1901C12.0451 25.1018 12.197 25.1179 12.3168 25.2383C12.4207 25.3427 12.4607 25.5032 12.3887 25.5675ZM11.6616 24.8369C11.5896 24.885 11.4538 24.8369 11.3659 24.7164C11.278 24.596 11.278 24.4595 11.3659 24.4033C11.4538 24.3311 11.5896 24.3873 11.6616 24.5077C11.7495 24.6281 11.7495 24.7726 11.6616 24.8369ZM11.1421 24.0581C11.0702 24.1303 10.9504 24.0902 10.8625 24.0099C10.7746 23.9055 10.7586 23.7851 10.8305 23.7289C10.9024 23.6566 11.0223 23.6968 11.1102 23.7771C11.1981 23.8815 11.2141 24.0019 11.1421 24.0581ZM10.6067 23.464C10.5748 23.5362 10.4709 23.5523 10.383 23.4961C10.2791 23.4479 10.2312 23.3596 10.2631 23.2873C10.2951 23.2392 10.383 23.2151 10.4869 23.2552C10.5908 23.3114 10.6387 23.3997 10.6067 23.464Z" fill="#292D31"/>
<path d="M12.0451 25.5193L11.9743 25.6007C11.9889 25.6108 12.0172 25.6259 12.0628 25.6318C12.0992 25.6365 12.1505 25.6342 12.2046 25.6157C12.1513 25.602 12.0954 25.5698 12.0451 25.5193ZM12.0451 25.5193C12.0432 25.5177 12.0414 25.516 12.0395 25.5143C11.9915 25.4709 11.9583 25.4197 11.9416 25.3696C11.9367 25.385 11.9332 25.3996 11.9308 25.4129C11.9203 25.4695 11.927 25.5107 11.9313 25.5293C11.9392 25.5642 11.9518 25.5804 11.9624 25.591C11.9631 25.5917 11.965 25.5935 11.9681 25.596L12.0451 25.5193ZM14.1867 26.282V26.3935C14.1816 26.3929 14.1762 26.392 14.1708 26.3907C14.1509 26.3863 14.1292 26.3778 14.1062 26.3631C14.0811 26.347 14.0401 26.3121 14.009 26.2569C14.0532 26.2768 14.1082 26.2867 14.1708 26.2832C14.176 26.2829 14.1814 26.2825 14.1867 26.282ZM14.1867 26.282L14.1969 26.3928C14.2042 26.3909 14.2127 26.388 14.2223 26.3838C14.2332 26.3789 14.2454 26.3721 14.2586 26.3628C14.2851 26.3442 14.3275 26.3046 14.3572 26.2427C14.3166 26.2641 14.2668 26.2781 14.2114 26.2813C14.2033 26.2818 14.1951 26.282 14.1867 26.282ZM11.2594 24.5607C11.2351 24.6111 11.2275 24.6597 11.2275 24.6933C11.2275 24.7212 11.2318 24.7436 11.2374 24.761C11.2404 24.7705 11.2438 24.7785 11.2472 24.785C11.2501 24.7886 11.2533 24.7922 11.2569 24.796M11.2594 24.5607L11.2569 24.796M11.2594 24.5607C11.273 24.556 11.2866 24.5507 11.3002 24.5449C11.3021 24.5917 11.3188 24.6435 11.3503 24.6935C11.3552 24.7012 11.3604 24.7089 11.3659 24.7164C11.367 24.718 11.3681 24.7195 11.3693 24.721C11.4216 24.7906 11.4899 24.8352 11.5516 24.8499C11.5533 24.8523 11.555 24.8547 11.5567 24.857C11.4734 24.8813 11.3946 24.8702 11.3453 24.8519C11.3067 24.8375 11.2797 24.8183 11.261 24.8001C11.2596 24.7987 11.2582 24.7973 11.2569 24.796M11.2594 24.5607L11.2569 24.796M23.1531 31.5592L23.189 31.5528L31.9109 18.3577H32.4109C32.4109 18.3575 32.4109 18.3573 32.4109 18.3571C32.4106 10.6945 26.2248 4.89145 18.6298 4.89145C11.0177 4.89145 5.18424 10.7115 5.18424 18.3577C5.18424 24.4624 9.01032 29.6972 14.4908 31.541L14.5262 31.5529L14.5629 31.5594C15.0148 31.6395 15.4149 31.552 15.7019 31.2895C15.9742 31.0405 16.0692 30.7018 16.0692 30.4248C16.0692 30.3072 16.0672 30.0041 16.0646 29.6139C16.0635 29.451 16.0624 29.273 16.0612 29.0869C16.0572 28.4526 16.0532 27.7214 16.0532 27.1652V26.5453L15.448 26.6764L15.4479 26.6764L15.4477 26.6764L15.4474 26.6765L15.4473 26.6765L15.4419 26.6776L15.4163 26.6827C15.3927 26.6873 15.3566 26.694 15.3095 26.7019C15.2152 26.7178 15.0775 26.7383 14.9092 26.7561C14.5704 26.7919 14.1181 26.8153 13.6497 26.7708C12.9284 26.7022 12.2734 26.4883 11.8666 26.0101C11.9571 26.0643 12.0596 26.1031 12.1706 26.1175C12.2296 26.1252 12.2928 26.1256 12.3569 26.1169C12.3895 26.2025 12.4369 26.2757 12.4857 26.3318C12.5971 26.4602 12.7483 26.547 12.9091 26.5873C13.0704 26.6371 13.2425 26.6356 13.3961 26.5876C13.4429 26.573 13.4954 26.5511 13.5481 26.5205C13.5903 26.571 13.6393 26.6148 13.6929 26.651C13.8531 26.7594 14.0391 26.7932 14.2097 26.7817C14.3705 26.7777 14.5352 26.7315 14.6742 26.6338C14.7005 26.6152 14.7271 26.5938 14.7528 26.5697C14.7747 26.5821 14.7963 26.5929 14.8172 26.6021C14.9781 26.673 15.1587 26.6863 15.3265 26.6513C15.4819 26.6197 15.6431 26.5473 15.7688 26.421C15.8945 26.2947 16.0078 26.0822 15.9565 25.8267C15.9486 25.7837 15.9369 25.7437 15.9222 25.7066L16.042 25.6521L16.0803 25.3803C16.1864 24.6269 16.4836 24.1466 16.7667 23.8918L17.5948 23.1465L16.4876 23.0232C14.9845 22.8559 13.6353 22.6698 12.6434 21.9688C11.7037 21.3047 10.9949 20.1021 10.9949 17.6512C10.9949 16.9679 11.088 16.4906 11.2605 16.086C11.4347 15.6773 11.7044 15.3078 12.1128 14.8549L12.3228 14.622L12.2046 14.3315C12.0989 14.0721 11.721 12.9118 12.2425 11.3635C12.3765 11.3686 12.5525 11.3987 12.7726 11.4649C13.125 11.5708 13.5157 11.7457 13.8892 11.9399C14.26 12.1326 14.5997 12.3369 14.8475 12.4937C14.9711 12.5719 15.0709 12.6377 15.1394 12.6836C15.1736 12.7065 15.1999 12.7245 15.2173 12.7365L15.2368 12.7499L15.2412 12.753L15.2421 12.7536L15.2421 12.7536L15.2422 12.7537L15.2422 12.7537L15.4364 12.8899L15.6648 12.8255C16.6734 12.5415 17.7704 12.3947 18.8535 12.3947C19.9367 12.3947 21.0337 12.5415 22.0423 12.8255L22.2707 12.8899L22.4648 12.7537L22.4648 12.7537L22.4649 12.7536L22.4649 12.7536L22.4658 12.753L22.4703 12.7499L22.4897 12.7365C22.5072 12.7245 22.5335 12.7065 22.5677 12.6836C22.6362 12.6377 22.736 12.5719 22.8596 12.4937C23.1074 12.3369 23.4471 12.1326 23.8179 11.9399C24.1913 11.7457 24.5821 11.5708 24.9344 11.4649C25.1543 11.3988 25.3302 11.3687 25.464 11.3635C25.9848 12.9175 25.602 14.0786 25.5003 14.337L25.387 14.625L25.5943 14.8549C26.0132 15.3195 26.3141 15.6935 26.5172 16.1093C26.715 16.5143 26.8321 16.9855 26.8321 17.6512C26.8321 20.1068 26.0942 21.3091 25.1222 21.9733C24.0943 22.6755 22.7084 22.8557 21.2035 23.0232L20.0588 23.1507L20.9336 23.8999C21.2853 24.2012 21.6618 24.8424 21.6618 25.985C21.6618 26.8789 21.6578 27.8795 21.6538 28.7113C21.6525 28.9926 21.6511 29.255 21.6499 29.4874C21.6476 29.9409 21.6458 30.2805 21.6458 30.4248C21.6458 30.706 21.7455 31.0437 22.0174 31.2907C22.304 31.551 22.7027 31.6401 23.1531 31.5592ZM11.0702 25.5835C11.2641 25.5071 11.3772 25.4626 11.4431 25.4366C11.4431 25.4366 11.4431 25.4366 11.4431 25.4366L11.0702 25.5835ZM12.9505 26.1634C12.9325 26.1419 12.9021 26.0943 12.8876 26.0287C12.9257 26.0625 12.9765 26.0894 13.0348 26.1033L13.0036 26.2068C13.0033 26.2067 12.9991 26.2054 12.9914 26.2006C12.9843 26.1962 12.9687 26.1853 12.9505 26.1634ZM13.2374 26.1132C13.1825 26.1283 13.1182 26.1283 13.0576 26.1099L13.0329 26.2146C13.055 26.2199 13.0777 26.2203 13.1086 26.2096C13.123 26.2046 13.1846 26.1801 13.2374 26.1132ZM15.1456 26.2508C15.127 26.242 15.0745 26.2117 15.031 26.1495C15.0783 26.1676 15.1358 26.1746 15.1958 26.1667L15.2062 26.2654C15.2025 26.2658 15.1821 26.2682 15.1456 26.2508ZM15.4026 26.0793C15.362 26.1153 15.3046 26.144 15.2364 26.1593L15.2571 26.2574C15.2615 26.2565 15.2944 26.2489 15.3332 26.2081C15.3599 26.18 15.3882 26.1356 15.4026 26.0793ZM9.56661 22.9354C9.56668 22.9354 9.56729 22.9364 9.56827 22.9384C9.56703 22.9363 9.56654 22.9353 9.56661 22.9354ZM9.41057 23.3436C9.41053 23.3435 9.41175 23.343 9.41441 23.3422C9.41195 23.3432 9.41061 23.3436 9.41057 23.3436ZM10.8847 24.1888C10.8635 24.158 10.8415 24.127 10.819 24.0959L10.8821 24.0268C10.9116 24.0505 10.9437 24.0695 10.9759 24.0815C10.9438 24.1155 10.9166 24.152 10.894 24.1898C10.8908 24.1895 10.8877 24.1892 10.8847 24.1888ZM10.334 23.5377L10.3316 23.5422C10.327 23.538 10.3224 23.5338 10.3178 23.5297C10.3232 23.5323 10.3286 23.535 10.334 23.5377ZM10.7856 24.0504C10.7689 24.028 10.7519 24.0055 10.7345 23.9831C10.7623 23.9719 10.7899 23.9585 10.8168 23.9428C10.8261 23.9605 10.8375 23.9782 10.8508 23.9955L10.7856 24.0504ZM4.74129 0.761139H32.8699C34.7092 0.761139 36.2056 2.26123 36.2056 4.11489V32.3758C36.2056 34.2294 34.7092 35.7295 32.8699 35.7295H4.74129C2.90201 35.7295 1.40558 34.2294 1.40558 32.3758V4.11489C1.40558 2.26123 2.90201 0.761139 4.74129 0.761139Z" stroke="white" stroke-opacity="0.25"/>
</svg>




