<svg width="41" height="41" viewBox="0 0 41 41" fill="none" xmlns="http://www.w3.org/2000/svg">
<path d="M35.8214 1.07715H5.17857C2.87165 1.07715 1 2.95729 1 5.27468V36.0566C1 38.374 2.87165 40.2541 5.17857 40.2541H35.8214C38.1283 40.2541 40 38.374 40 36.0566V5.27468C40 2.95729 38.1283 1.07715 35.8214 1.07715ZM25.14 34.6312C24.4087 34.7623 24.1388 34.3076 24.1388 33.9316C24.1388 33.4594 24.1563 31.0458 24.1563 29.0957C24.1563 27.7315 23.7036 26.8657 23.1725 26.411C26.3935 26.0525 29.7886 25.6065 29.7886 20.0185C29.7886 18.4269 29.2228 17.6312 28.3 16.608C28.448 16.232 28.9442 14.6841 28.152 12.6728C26.942 12.2968 24.1737 14.2382 24.1737 14.2382C23.0246 13.9146 21.7797 13.7484 20.5522 13.7484C19.3248 13.7484 18.0799 13.9146 16.9308 14.2382C16.9308 14.2382 14.1625 12.2968 12.9525 12.6728C12.1603 14.6754 12.6478 16.2232 12.8045 16.608C11.8817 17.6312 11.4464 18.4269 11.4464 20.0185C11.4464 25.5802 14.6935 26.0525 17.9145 26.411C17.4967 26.787 17.1223 27.4341 16.9917 28.3611C16.1647 28.7371 14.0493 29.3843 12.7871 27.1456C11.9949 25.7639 10.5672 25.6502 10.5672 25.6502C9.15692 25.6327 10.4714 26.5422 10.4714 26.5422C11.4116 26.9794 12.0732 28.6584 12.0732 28.6584C12.9176 31.2557 16.9569 30.3812 16.9569 30.3812C16.9569 31.5967 16.9743 33.573 16.9743 33.9316C16.9743 34.3076 16.7132 34.7623 15.9732 34.6312C10.2277 32.6986 6.2058 27.2068 6.2058 20.7881C6.2058 12.7603 12.317 6.66511 20.3085 6.66511C28.3 6.66511 34.7768 12.7603 34.7768 20.7881C34.7855 27.2068 30.8855 32.7073 25.14 34.6312ZM16.6 29.2881C16.4346 29.323 16.2779 29.2531 16.2605 29.1394C16.2431 29.0082 16.3563 28.8945 16.5217 28.8596C16.6871 28.8421 16.8438 28.912 16.8612 29.0257C16.8873 29.1394 16.7741 29.2531 16.6 29.2881ZM15.773 29.2094C15.773 29.323 15.6424 29.4192 15.4683 29.4192C15.2768 29.4367 15.1462 29.3405 15.1462 29.2094C15.1462 29.0957 15.2768 28.9995 15.4509 28.9995C15.6163 28.982 15.773 29.0782 15.773 29.2094ZM14.5804 29.1132C14.5455 29.2268 14.3714 29.2793 14.2234 29.2268C14.058 29.1919 13.9449 29.0607 13.9797 28.947C14.0145 28.8333 14.1886 28.7809 14.3366 28.8158C14.5107 28.8683 14.6239 28.9995 14.5804 29.1132ZM13.5096 28.6409C13.4313 28.7371 13.2658 28.7196 13.1353 28.5885C13.0047 28.4748 12.9699 28.3086 13.0569 28.2299C13.1353 28.1337 13.3007 28.1512 13.4313 28.2824C13.5444 28.3961 13.5879 28.571 13.5096 28.6409ZM12.7174 27.8452C12.6391 27.8976 12.4911 27.8452 12.3953 27.714C12.2996 27.5828 12.2996 27.4341 12.3953 27.3729C12.4911 27.2942 12.6391 27.3554 12.7174 27.4866C12.8132 27.6178 12.8132 27.7752 12.7174 27.8452ZM12.1516 26.9969C12.0732 27.0756 11.9426 27.0319 11.8469 26.9444C11.7511 26.8308 11.7337 26.6996 11.8121 26.6384C11.8904 26.5597 12.021 26.6034 12.1167 26.6908C12.2125 26.8045 12.2299 26.9357 12.1516 26.9969ZM11.5683 26.3498C11.5335 26.4285 11.4203 26.446 11.3246 26.3848C11.2114 26.3323 11.1592 26.2361 11.194 26.1574C11.2288 26.1049 11.3246 26.0787 11.4377 26.1224C11.5509 26.1836 11.6031 26.2798 11.5683 26.3498Z" fill="#292D31" stroke="white" stroke-opacity="0.5"/>
</svg>
