<svg width="39" height="40" viewBox="0 0 39 40" fill="none" xmlns="http://www.w3.org/2000/svg">
<path d="M36.2143 0.0771484H2.77701C1.24487 0.0771484 0 1.34515 0 2.90174V36.4295C0 37.9861 1.24487 39.2541 2.77701 39.2541H36.2143C37.7464 39.2541 39 37.9861 39 36.4295V2.90174C39 1.34515 37.7464 0.0771484 36.2143 0.0771484ZM11.7871 33.6574H6.0067V14.9609H11.7958V33.6574H11.7871ZM8.89688 12.4074C7.04263 12.4074 5.54531 10.8945 5.54531 9.04063C5.54531 7.18672 7.04263 5.67386 8.89688 5.67386C10.7424 5.67386 12.2484 7.18672 12.2484 9.04063C12.2484 10.9033 10.7511 12.4074 8.89688 12.4074ZM33.4547 33.6574H27.6743V24.5627C27.6743 22.394 27.6308 19.6044 24.671 19.6044C21.6589 19.6044 21.1975 21.9655 21.1975 24.4053V33.6574H15.4172V14.9609H20.9625V17.5144H21.0408C21.8156 16.0453 23.7047 14.4974 26.5165 14.4974C32.3665 14.4974 33.4547 18.3714 33.4547 23.4084V33.6574Z" fill="#292D31"/>
<path d="M5.5067 33.6574V34.1574H6.0067H11.7871H11.7958H12.2958V33.6574V14.9609V14.4609H11.7958H6.0067H5.5067V14.9609V33.6574ZM33.4547 34.1574H33.9547V33.6574V23.4084C33.9547 20.8788 33.687 18.5251 32.6028 16.7982C31.4853 15.0182 29.566 13.9974 26.5165 13.9974C24.2619 13.9974 22.5428 14.9303 21.4625 16.082V14.9609V14.4609H20.9625H15.4172H14.9172V14.9609V33.6574V34.1574H15.4172H21.1975H21.6975V33.6574V24.4053C21.6975 23.1945 21.8167 22.1065 22.243 21.3307C22.4496 20.9546 22.7263 20.6565 23.1005 20.4485C23.4775 20.2389 23.9833 20.1044 24.671 20.1044C25.3304 20.1044 25.7819 20.2587 26.1014 20.4832C26.4223 20.7088 26.6529 21.0354 26.8173 21.4533C27.1571 22.3175 27.1743 23.4567 27.1743 24.5627V33.6574V34.1574H27.6743H33.4547ZM2.77701 0.577148H36.2143C37.4641 0.577148 38.5 1.61509 38.5 2.90174V36.4295C38.5 37.7162 37.4641 38.7541 36.2143 38.7541H2.77701C1.52919 38.7541 0.5 37.7182 0.5 36.4295V2.90174C0.5 1.61304 1.52919 0.577148 2.77701 0.577148ZM5.04531 9.04063C5.04531 11.1677 6.76352 12.9074 8.89688 12.9074C11.0294 12.9074 12.7484 11.1773 12.7484 9.04063C12.7484 6.91271 11.0207 5.17386 8.89688 5.17386C6.76352 5.17386 5.04531 6.91356 5.04531 9.04063Z" stroke="white" stroke-opacity="0.25"/>
</svg>

