<svg width="41" height="41" viewBox="0 0 41 41" fill="none" xmlns="http://www.w3.org/2000/svg">
<path d="M37.2143 1.07715H3.77701C2.24487 1.07715 1 2.34515 1 3.90174V37.4295C1 38.9861 2.24487 40.2541 3.77701 40.2541H37.2143C38.7464 40.2541 40 38.9861 40 37.4295V3.90174C40 2.34515 38.7464 1.07715 37.2143 1.07715ZM12.7871 34.6574H7.0067V15.9609H12.7958V34.6574H12.7871ZM9.89688 13.4074C8.04263 13.4074 6.54531 11.8945 6.54531 10.0406C6.54531 8.18672 8.04263 6.67386 9.89688 6.67386C11.7424 6.67386 13.2484 8.18672 13.2484 10.0406C13.2484 11.9033 11.7511 13.4074 9.89688 13.4074ZM34.4547 34.6574H28.6743V25.5627C28.6743 23.394 28.6308 20.6044 25.671 20.6044C22.6589 20.6044 22.1975 22.9655 22.1975 25.4053V34.6574H16.4172V15.9609H21.9625V18.5144H22.0408C22.8156 17.0453 24.7047 15.4974 27.5165 15.4974C33.3665 15.4974 34.4547 19.3714 34.4547 24.4084V34.6574Z" fill="#292D31" stroke="white" stroke-opacity="0.5"/>
</svg>




