<svg width="14" height="18" viewBox="0 0 14 18" fill="none" xmlns="http://www.w3.org/2000/svg">
<path d="M7.67291 17.0643C9.46657 14.9353 13.5574 9.77527 13.5574 6.8769C13.5574 3.36171 10.5505 0.509766 6.84426 0.509766C3.13807 0.509766 0.131149 3.36171 0.131149 6.8769C0.131149 9.77527 4.22195 14.9353 6.01561 17.0643C6.44567 17.5717 7.24285 17.5717 7.67291 17.0643ZM6.84426 4.75452C7.43774 4.75452 8.00691 4.97813 8.42656 5.37615C8.84621 5.77417 9.08197 6.31401 9.08197 6.8769C9.08197 7.43979 8.84621 7.97962 8.42656 8.37764C8.00691 8.77567 7.43774 8.99927 6.84426 8.99927C6.25079 8.99927 5.68162 8.77567 5.26197 8.37764C4.84232 7.97962 4.60656 7.43979 4.60656 6.8769C4.60656 6.31401 4.84232 5.77417 5.26197 5.37615C5.68162 4.97813 6.25079 4.75452 6.84426 4.75452Z" fill="white"/>
</svg>
