<svg width="16" height="15" viewBox="0 0 16 15" fill="none" xmlns="http://www.w3.org/2000/svg">
<path d="M13.2495 2.75052H10.6258V1.87526C10.6258 1.76023 10.6031 1.64633 10.5591 1.54007C10.515 1.43381 10.4504 1.33728 10.3691 1.25599C10.2877 1.1747 10.1911 1.11025 10.0847 1.06633C9.97844 1.0224 9.86451 0.999864 9.74948 1H6.25052C6.13558 1 6.02176 1.02264 5.91557 1.06663C5.80938 1.11061 5.71289 1.17508 5.63162 1.25636C5.55034 1.33763 5.48587 1.43412 5.44188 1.54031C5.3979 1.6465 5.37526 1.76032 5.37526 1.87526V2.75052H2.75052C1.784 2.75052 1 3.53348 1 4.5V12.3753C1 13.3418 1.784 14.1248 2.75052 14.1248H13.2495C14.216 14.1248 15 13.3418 15 12.3753V4.5C15 4.27017 14.9547 4.04259 14.8667 3.83027C14.7787 3.61794 14.6498 3.42503 14.4872 3.26257C14.3247 3.1001 14.1317 2.97125 13.9193 2.88339C13.7069 2.79554 13.4793 2.75038 13.2495 2.75052ZM6.24948 2.31289C6.24948 2.07126 6.44548 1.87526 6.68815 1.87526H9.31185C9.55348 1.87526 9.74948 2.0723 9.74948 2.31289V2.75052H6.25052V2.31289H6.24948ZM14.1247 12.3753C14.1242 12.6073 14.0316 12.8297 13.8673 12.9936C13.7031 13.1575 13.4805 13.2495 13.2484 13.2495H2.75052C2.63563 13.2496 2.52183 13.2271 2.41565 13.1832C2.30946 13.1394 2.21297 13.075 2.13168 12.9938C2.05039 12.9126 1.9859 12.8162 1.9419 12.7101C1.89791 12.6039 1.87526 12.4902 1.87526 12.3753V7.56238H6.3117C6.2723 7.70445 6.25259 7.85171 6.24948 7.99897C6.2606 8.45572 6.44986 8.89003 6.77683 9.20914C7.10381 9.52826 7.54259 9.70689 7.99948 9.70689C8.45637 9.70689 8.89515 9.52826 9.22213 9.20914C9.54911 8.89003 9.73836 8.45572 9.74948 7.99897C9.74741 7.85104 9.7265 7.70398 9.68726 7.56134H14.1258V12.3732H14.1247V12.3753ZM7.12474 8.00001C7.12474 7.8403 7.17141 7.69201 7.24607 7.56238H8.75393C8.83268 7.69482 8.87457 7.84592 8.87526 8.00001C8.87526 8.23214 8.78304 8.45477 8.6189 8.61891C8.45476 8.78305 8.23213 8.87527 8 8.87527C7.76787 8.87527 7.54524 8.78305 7.3811 8.61891C7.21696 8.45477 7.12474 8.23214 7.12474 8.00001ZM14.1247 6.68815H1.87422V4.5C1.87422 4.01674 2.26519 3.62578 2.74948 3.62578H13.2484C13.7317 3.62578 14.1247 4.01674 14.1247 4.5V6.68815Z" fill="#D9D9D9" stroke="#D9D9D9"/>
</svg>



