<svg width="75" height="75" viewBox="0 0 75 75" fill="none" xmlns="http://www.w3.org/2000/svg">
<g clip-path="url(#clip0_1008_10)">
<mask id="mask0_1008_10" style="mask-type:luminance" maskUnits="userSpaceOnUse" x="0" y="0" width="75" height="75">
<path d="M75 0H0V75H75V0Z" fill="white"/>
</mask>
<g mask="url(#mask0_1008_10)">
<path fill-rule="evenodd" clip-rule="evenodd" d="M32.6328 7.63841C31.485 11.3751 29.1273 19.549 27.8098 27.6018C31.2291 28.1538 34.5691 28.5065 37.5 28.5065C40.4309 28.5065 43.7709 28.1538 47.1903 27.6018C45.8728 19.549 43.515 11.3751 42.3672 7.63841C40.7841 7.3825 39.1584 7.24928 37.5 7.24928C35.8416 7.24928 34.2159 7.3825 32.6328 7.63841ZM47.9178 9.09041C49.1781 13.4531 50.9244 20.0884 52.015 26.7105C56.7228 25.7407 61.1647 24.557 64.3906 23.6284C60.9331 16.9407 55.0538 11.7082 47.9178 9.09041ZM66.2903 28.1854C62.8819 29.1776 57.9447 30.5102 52.6856 31.5803C52.9047 33.6137 53.0341 35.6119 53.0341 37.5C53.0341 40.255 52.7584 43.2534 52.3266 46.2681C58.6219 44.9556 64.3963 43.2781 67.3616 42.3672C67.6175 40.7841 67.7506 39.1584 67.7506 37.5C67.7506 34.2469 67.2381 31.1172 66.2903 28.1854ZM65.9097 47.9178C62.2394 48.9778 56.9656 50.3809 51.4481 51.4481C50.3809 56.9656 48.9778 62.2394 47.9178 65.9097C56.2431 62.8556 62.8556 56.2431 65.9097 47.9178ZM42.3675 67.3616C43.2781 64.3963 44.9556 58.6219 46.2681 52.3266C43.2534 52.7584 40.255 53.0341 37.5 53.0341C34.745 53.0341 31.7466 52.7584 28.732 52.3266C30.0444 58.6219 31.7219 64.3963 32.6328 67.3616C34.2159 67.6175 35.8416 67.7506 37.5 67.7506C39.1584 67.7506 40.7841 67.6175 42.3675 67.3616ZM27.0822 65.9097C26.0221 62.2394 24.6191 56.9656 23.5518 51.4481C18.0343 50.3809 12.7605 48.9778 9.09034 47.9178C12.1444 56.2431 18.7568 62.8556 27.0822 65.9097ZM7.63841 42.3672C10.6036 43.2781 16.3782 44.9556 22.6734 46.2681C22.2416 43.2534 21.9658 40.255 21.9658 37.5C21.9658 35.6119 22.0953 33.6137 22.3143 31.5803C17.0553 30.5102 12.1181 29.1776 8.70975 28.1854C7.76197 31.1172 7.24928 34.2469 7.24928 37.5C7.24928 39.1584 7.3825 40.7841 7.63841 42.3672ZM10.6095 23.6284C13.8353 24.557 18.277 25.7407 22.9851 26.7105C24.0755 20.0883 25.822 13.4531 27.0821 9.09041C19.9463 11.7082 14.0668 16.9407 10.6095 23.6284ZM27.1539 32.465C26.973 34.2325 26.8714 35.9275 26.8714 37.5C26.8714 40.4372 27.2257 43.7875 27.7808 47.2194C31.2124 47.7744 34.5628 48.1288 37.5 48.1288C40.4372 48.1288 43.7875 47.7744 47.2194 47.2194C47.7744 43.7875 48.1288 40.4372 48.1288 37.5C48.1288 35.9275 48.0269 34.2325 47.8462 32.465C44.305 33.0322 40.7338 33.4122 37.5 33.4122C34.2662 33.4122 30.6949 33.0322 27.1539 32.465ZM30.2273 3.09742C32.5759 2.60321 35.0091 2.34375 37.5 2.34375C39.9909 2.34375 42.4241 2.60321 44.7728 3.09742C56.2838 5.51959 65.7128 13.5655 70.0625 24.2242C71.7356 28.3236 72.6562 32.8072 72.6562 37.5C72.6562 39.9909 72.3969 42.4241 71.9025 44.7728C69.0447 58.355 58.355 69.0447 44.7728 71.9025C42.4241 72.3969 39.9909 72.6562 37.5 72.6562C35.0091 72.6562 32.5759 72.3969 30.2273 71.9025C16.6451 69.0447 5.95538 58.355 3.09742 44.7728C2.60321 42.4241 2.34375 39.9909 2.34375 37.5C2.34375 32.8038 3.26591 28.3166 4.94134 24.2146C9.29278 13.5607 18.7196 5.51888 30.2273 3.09742Z" fill="white"/>
</g>
</g>
<defs>
<clipPath id="clip0_1008_10">
<rect width="75" height="75" fill="white"/>
</clipPath>
</defs>
</svg>
