<svg width="46" height="35" viewBox="0 0 46 35" fill="none" xmlns="http://www.w3.org/2000/svg">
<path d="M5.66667 4.26928C4.8875 4.26928 4.25 4.90968 4.25 5.69238V7.65803L19.5234 20.2524C21.3563 21.7645 23.9859 21.7645 25.8188 20.2524L41.0833 7.65803V5.69238C41.0833 4.90968 40.4458 4.26928 39.6667 4.26928H5.66667ZM4.25 13.1814V28.4619C4.25 29.2446 4.8875 29.885 5.66667 29.885H39.6667C40.4458 29.885 41.0833 29.2446 41.0833 28.4619V13.1814L28.5104 23.5522C25.1104 26.3539 20.2141 26.3539 16.8229 23.5522L4.25 13.1814ZM0 5.69238C0 2.55268 2.54115 0 5.66667 0H39.6667C42.7922 0 45.3333 2.55268 45.3333 5.69238V28.4619C45.3333 31.6016 42.7922 34.1543 39.6667 34.1543H5.66667C2.54115 34.1543 0 31.6016 0 28.4619V5.69238Z" fill="black"/>
</svg>