<svg width="35" height="27" viewBox="0 0 35 27" fill="none" xmlns="http://www.w3.org/2000/svg">
<path d="M25.4043 13.3086C25.4043 14.5391 25.2402 15.7109 24.9121 16.8242C24.584 17.9258 24.1211 18.9453 23.5234 19.8828C22.9375 20.8203 22.2344 21.6699 21.4141 22.4316C20.5938 23.1816 19.6855 23.8203 18.6895 24.3477C17.7051 24.875 16.6445 25.2852 15.5078 25.5781C14.3828 25.8594 13.2227 26 12.0273 26H0.865234V0.6875H12.0273C13.2227 0.6875 14.3828 0.828125 15.5078 1.10938C16.6328 1.39062 17.6875 1.79492 18.6719 2.32227C19.668 2.83789 20.5762 3.4707 21.3965 4.2207C22.2285 4.9707 22.9375 5.81445 23.5234 6.75195C24.1211 7.67773 24.584 8.69727 24.9121 9.81055C25.2402 10.9121 25.4043 12.0781 25.4043 13.3086ZM18.3203 13.3086C18.3203 11.9375 18.1504 10.6367 17.8105 9.40625C17.4824 8.16406 16.9668 7.07422 16.2637 6.13672C15.5605 5.19922 14.6641 4.45508 13.5742 3.9043C12.4961 3.35352 11.2012 3.07812 9.68945 3.07812H7.84375V23.5391H9.68945C11.1777 23.5391 12.4609 23.2637 13.5391 22.7129C14.6289 22.1504 15.5254 21.4004 16.2285 20.4629C16.9434 19.5137 17.4707 18.4238 17.8105 17.1934C18.1504 15.9629 18.3203 14.668 18.3203 13.3086ZM34.1582 23.3633C34.1582 23.8086 34.0762 24.2305 33.9121 24.6289C33.748 25.0156 33.5195 25.3555 33.2266 25.6484C32.9336 25.9297 32.5938 26.1523 32.207 26.3164C31.8203 26.4922 31.4043 26.5801 30.959 26.5801C30.5137 26.5801 30.0977 26.4922 29.7109 26.3164C29.3242 26.1523 28.9844 25.9297 28.6914 25.6484C28.3984 25.3555 28.1699 25.0156 28.0059 24.6289C27.8418 24.2305 27.7598 23.8086 27.7598 23.3633C27.7598 22.9297 27.8418 22.5195 28.0059 22.1328C28.1699 21.7344 28.3984 21.3945 28.6914 21.1133C28.9844 20.8203 29.3242 20.5918 29.7109 20.4277C30.0977 20.252 30.5137 20.1641 30.959 20.1641C31.4043 20.1641 31.8203 20.252 32.207 20.4277C32.5938 20.5918 32.9336 20.8203 33.2266 21.1133C33.5195 21.3945 33.748 21.7344 33.9121 22.1328C34.0762 22.5195 34.1582 22.9297 34.1582 23.3633Z" fill="white"/>
</svg>



