<svg width="38" height="27" viewBox="0 0 38 27" fill="none" xmlns="http://www.w3.org/2000/svg">
<path d="M0 2.96157C0 1.79933 1.21295 0.860352 2.71429 0.860352H35.2857C36.7871 0.860352 38 1.79933 38 2.96157C38 4.12381 36.7871 5.06279 35.2857 5.06279H2.71429C1.21295 5.06279 0 4.12381 0 2.96157ZM0 13.4677C0 12.3054 1.21295 11.3664 2.71429 11.3664H35.2857C36.7871 11.3664 38 12.3054 38 13.4677C38 14.6299 36.7871 15.5689 35.2857 15.5689H2.71429C1.21295 15.5689 0 14.6299 0 13.4677ZM38 23.9738C38 25.136 36.7871 26.075 35.2857 26.075H2.71429C1.21295 26.075 0 25.136 0 23.9738C0 22.8115 1.21295 21.8725 2.71429 21.8725H35.2857C36.7871 21.8725 38 22.8115 38 23.9738Z" fill="white"/>
</svg>

